<?xml version="1.0" standalone="no"?><svg xmlns="http://www.w3.org/2000/svg" viewBox="0 0 1440 320"><path fill="#fce300" fill-opacity="1" d="M0,288L14.1,261.3C28.2,235,56,181,85,154.7C112.9,128,141,128,169,144C197.6,160,226,192,254,170.7C282.4,149,311,75,339,90.7C367.1,107,395,213,424,218.7C451.8,224,480,128,508,117.3C536.5,107,565,181,593,218.7C621.2,256,649,256,678,256C705.9,256,734,256,762,250.7C790.6,245,819,235,847,234.7C875.3,235,904,245,932,218.7C960,192,988,128,1016,106.7C1044.7,85,1073,107,1101,144C1129.4,181,1158,235,1186,213.3C1214.1,192,1242,96,1271,85.3C1298.8,75,1327,149,1355,197.3C1383.5,245,1412,267,1426,277.3L1440,288L1440,0L1425.9,0C1411.8,0,1384,0,1355,0C1327.1,0,1299,0,1271,0C1242.4,0,1214,0,1186,0C1157.6,0,1129,0,1101,0C1072.9,0,1045,0,1016,0C988.2,0,960,0,932,0C903.5,0,875,0,847,0C818.8,0,791,0,762,0C734.1,0,706,0,678,0C649.4,0,621,0,593,0C564.7,0,536,0,508,0C480,0,452,0,424,0C395.3,0,367,0,339,0C310.6,0,282,0,254,0C225.9,0,198,0,169,0C141.2,0,113,0,85,0C56.5,0,28,0,14,0L0,0Z"></path></svg>