<?xml version="1.0" standalone="no"?><svg xmlns="http://www.w3.org/2000/svg" viewBox="0 0 1440 320"><path fill="#fce300" fill-opacity="1" d="M0,160L14.1,181.3C28.2,203,56,245,85,229.3C112.9,213,141,139,169,122.7C197.6,107,226,149,254,144C282.4,139,311,85,339,101.3C367.1,117,395,203,424,229.3C451.8,256,480,224,508,197.3C536.5,171,565,149,593,149.3C621.2,149,649,171,678,202.7C705.9,235,734,277,762,293.3C790.6,309,819,299,847,282.7C875.3,267,904,245,932,202.7C960,160,988,96,1016,80C1044.7,64,1073,96,1101,90.7C1129.4,85,1158,43,1186,53.3C1214.1,64,1242,128,1271,133.3C1298.8,139,1327,85,1355,69.3C1383.5,53,1412,75,1426,85.3L1440,96L1440,0L1425.9,0C1411.8,0,1384,0,1355,0C1327.1,0,1299,0,1271,0C1242.4,0,1214,0,1186,0C1157.6,0,1129,0,1101,0C1072.9,0,1045,0,1016,0C988.2,0,960,0,932,0C903.5,0,875,0,847,0C818.8,0,791,0,762,0C734.1,0,706,0,678,0C649.4,0,621,0,593,0C564.7,0,536,0,508,0C480,0,452,0,424,0C395.3,0,367,0,339,0C310.6,0,282,0,254,0C225.9,0,198,0,169,0C141.2,0,113,0,85,0C56.5,0,28,0,14,0L0,0Z"></path></svg>