<?xml version="1.0" standalone="no"?><svg xmlns="http://www.w3.org/2000/svg" viewBox="0 0 1440 320"><path fill="#fce300" fill-opacity="1" d="M0,256L20,250.7C40,245,80,235,120,224C160,213,200,203,240,181.3C280,160,320,128,360,138.7C400,149,440,203,480,229.3C520,256,560,256,600,229.3C640,203,680,149,720,144C760,139,800,181,840,181.3C880,181,920,139,960,149.3C1000,160,1040,224,1080,224C1120,224,1160,160,1200,149.3C1240,139,1280,181,1320,202.7C1360,224,1400,224,1420,224L1440,224L1440,0L1420,0C1400,0,1360,0,1320,0C1280,0,1240,0,1200,0C1160,0,1120,0,1080,0C1040,0,1000,0,960,0C920,0,880,0,840,0C800,0,760,0,720,0C680,0,640,0,600,0C560,0,520,0,480,0C440,0,400,0,360,0C320,0,280,0,240,0C200,0,160,0,120,0C80,0,40,0,20,0L0,0Z"></path></svg>