<?xml version="1.0" standalone="no"?><svg xmlns="http://www.w3.org/2000/svg" viewBox="0 0 1440 320"><path fill="#fce300" fill-opacity="1" d="M0,64L30,85.3C60,107,120,149,180,149.3C240,149,300,107,360,128C420,149,480,235,540,229.3C600,224,660,128,720,85.3C780,43,840,53,900,96C960,139,1020,213,1080,240C1140,267,1200,245,1260,218.7C1320,192,1380,160,1410,144L1440,128L1440,320L1410,320C1380,320,1320,320,1260,320C1200,320,1140,320,1080,320C1020,320,960,320,900,320C840,320,780,320,720,320C660,320,600,320,540,320C480,320,420,320,360,320C300,320,240,320,180,320C120,320,60,320,30,320L0,320Z"></path></svg>